<svg xmlns="http://www.w3.org/2000/svg" width="720" height="720" viewBox="0 0 720 720"><path d="M0 40 H160 L180.0 0 H300.0 L320 40 H720" fill="none" stroke="#8fc2f0" stroke-width="1.6" stroke-linecap="round" stroke-linejoin="round" opacity="0.555318572997827"/><path d="M0 80 H80 L100.0 40 H420.0 L440 80 H720" fill="none" stroke="#8fc2f0" stroke-width="1.6" stroke-linecap="round" stroke-linejoin="round" opacity="0.37148680842229287"/><path d="M0 120 H120 L140.0 160 H180.0 L200 120 H720" fill="none" stroke="#8fc2f0" stroke-width="1.6" stroke-linecap="round" stroke-linejoin="round" opacity="0.5567130311680095"/><path d="M0 160 H200 L220.0 120 H460.0 L480 160 H720" fill="none" stroke="#8fc2f0" stroke-width="2.6" stroke-linecap="round" stroke-linejoin="round" opacity="0.49638535566009667"/><path d="M0 200 H80 L100.0 160 H180.0 L200 200 H720" fill="none" stroke="#8fc2f0" stroke-width="2.0" stroke-linecap="round" stroke-linejoin="round" opacity="0.4547847608928663"/><path d="M0 440 H120 L140.0 400 H380.0 L400 440 H720" fill="none" stroke="#8fc2f0" stroke-width="2.6" stroke-linecap="round" stroke-linejoin="round" opacity="0.36490029249155814"/><path d="M0 480 H400 L420.0 520 H460.0 L480 480 H720" fill="none" stroke="#8fc2f0" stroke-width="2.0" stroke-linecap="round" stroke-linejoin="round" opacity="0.4664004664599185"/><path d="M0 560 H200 L220.0 520 H540.0 L560 560 H720" fill="none" stroke="#8fc2f0" stroke-width="2.6" stroke-linecap="round" stroke-linejoin="round" opacity="0.5449574076460609"/><path d="M0 600 H240 L260.0 640 H380.0 L400 600 H720" fill="none" stroke="#8fc2f0" stroke-width="2.0" stroke-linecap="round" stroke-linejoin="round" opacity="0.5323613223598044"/><path d="M0 640 H120 L140.0 680 H580.0 L600 640 H720" fill="none" stroke="#8fc2f0" stroke-width="1.6" stroke-linecap="round" stroke-linejoin="round" opacity="0.5392852323913123"/><path d="M40 0 V120 L80 140.0 V460.0 L40 480 V720" fill="none" stroke="#8fc2f0" stroke-width="2.0" stroke-linecap="round" stroke-linejoin="round" opacity="0.4390590732547318"/><path d="M360 0 V240 L400 260.0 V500.0 L360 520 V720" fill="none" stroke="#8fc2f0" stroke-width="2.0" stroke-linecap="round" stroke-linejoin="round" opacity="0.44332555887966074"/><path d="M640 0 V160 L600 180.0 V220.0 L640 240 V720" fill="none" stroke="#8fc2f0" stroke-width="2.0" stroke-linecap="round" stroke-linejoin="round" opacity="0.3781899406266454"/><circle cx="120" cy="240" r="5" fill="none" stroke="#8fc2f0" stroke-width="2" opacity="0.5"/><circle cx="120" cy="240" r="1.8" fill="#8fc2f0" opacity="0.45"/><circle cx="600" cy="520" r="5" fill="none" stroke="#8fc2f0" stroke-width="2" opacity="0.5"/><circle cx="600" cy="520" r="1.8" fill="#8fc2f0" opacity="0.45"/><circle cx="360" cy="200" r="5" fill="none" stroke="#8fc2f0" stroke-width="2" opacity="0.5"/><circle cx="360" cy="200" r="1.8" fill="#8fc2f0" opacity="0.45"/><circle cx="560" cy="360" r="5" fill="none" stroke="#8fc2f0" stroke-width="2" opacity="0.5"/><circle cx="560" cy="360" r="1.8" fill="#8fc2f0" opacity="0.45"/><circle cx="560" cy="480" r="5" fill="none" stroke="#8fc2f0" stroke-width="2" opacity="0.5"/><circle cx="560" cy="480" r="1.8" fill="#8fc2f0" opacity="0.45"/><circle cx="520" cy="320" r="5" fill="none" stroke="#8fc2f0" stroke-width="2" opacity="0.5"/><circle cx="520" cy="320" r="1.8" fill="#8fc2f0" opacity="0.45"/><circle cx="200" cy="120" r="5" fill="none" stroke="#8fc2f0" stroke-width="2" opacity="0.5"/><circle cx="200" cy="120" r="1.8" fill="#8fc2f0" opacity="0.45"/><circle cx="240" cy="200" r="5" fill="none" stroke="#8fc2f0" stroke-width="2" opacity="0.5"/><circle cx="240" cy="200" r="1.8" fill="#8fc2f0" opacity="0.45"/><circle cx="320" cy="320" r="5" fill="none" stroke="#8fc2f0" stroke-width="2" opacity="0.5"/><circle cx="320" cy="320" r="1.8" fill="#8fc2f0" opacity="0.45"/><circle cx="40" cy="640" r="5" fill="none" stroke="#8fc2f0" stroke-width="2" opacity="0.5"/><circle cx="40" cy="640" r="1.8" fill="#8fc2f0" opacity="0.45"/><circle cx="240" cy="360" r="5" fill="none" stroke="#8fc2f0" stroke-width="2" opacity="0.5"/><circle cx="240" cy="360" r="1.8" fill="#8fc2f0" opacity="0.45"/><circle cx="400" cy="40" r="5" fill="none" stroke="#8fc2f0" stroke-width="2" opacity="0.5"/><circle cx="400" cy="40" r="1.8" fill="#8fc2f0" opacity="0.45"/><circle cx="200" cy="560" r="5" fill="none" stroke="#8fc2f0" stroke-width="2" opacity="0.5"/><circle cx="200" cy="560" r="1.8" fill="#8fc2f0" opacity="0.45"/><circle cx="480" cy="440" r="5" fill="none" stroke="#8fc2f0" stroke-width="2" opacity="0.5"/><circle cx="480" cy="440" r="1.8" fill="#8fc2f0" opacity="0.45"/><circle cx="200" cy="680" r="5" fill="none" stroke="#8fc2f0" stroke-width="2" opacity="0.5"/><circle cx="200" cy="680" r="1.8" fill="#8fc2f0" opacity="0.45"/><circle cx="80" cy="600" r="5" fill="none" stroke="#8fc2f0" stroke-width="2" opacity="0.5"/><circle cx="80" cy="600" r="1.8" fill="#8fc2f0" opacity="0.45"/><circle cx="520" cy="520" r="5" fill="none" stroke="#8fc2f0" stroke-width="2" opacity="0.5"/><circle cx="520" cy="520" r="1.8" fill="#8fc2f0" opacity="0.45"/><circle cx="520" cy="520" r="5" fill="none" stroke="#8fc2f0" stroke-width="2" opacity="0.5"/><circle cx="520" cy="520" r="1.8" fill="#8fc2f0" opacity="0.45"/><circle cx="160" cy="640" r="5" fill="none" stroke="#8fc2f0" stroke-width="2" opacity="0.5"/><circle cx="160" cy="640" r="1.8" fill="#8fc2f0" opacity="0.45"/><circle cx="520" cy="80" r="5" fill="none" stroke="#8fc2f0" stroke-width="2" opacity="0.5"/><circle cx="520" cy="80" r="1.8" fill="#8fc2f0" opacity="0.45"/><circle cx="280" cy="120" r="5" fill="none" stroke="#8fc2f0" stroke-width="2" opacity="0.5"/><circle cx="280" cy="120" r="1.8" fill="#8fc2f0" opacity="0.45"/><circle cx="280" cy="600" r="5" fill="none" stroke="#8fc2f0" stroke-width="2" opacity="0.5"/><circle cx="280" cy="600" r="1.8" fill="#8fc2f0" opacity="0.45"/><circle cx="240" cy="160" r="5" fill="none" stroke="#8fc2f0" stroke-width="2" opacity="0.5"/><circle cx="240" cy="160" r="1.8" fill="#8fc2f0" opacity="0.45"/><circle cx="440" cy="80" r="5" fill="none" stroke="#8fc2f0" stroke-width="2" opacity="0.5"/><circle cx="440" cy="80" r="1.8" fill="#8fc2f0" opacity="0.45"/><circle cx="160" cy="40" r="5" fill="none" stroke="#8fc2f0" stroke-width="2" opacity="0.5"/><circle cx="160" cy="40" r="1.8" fill="#8fc2f0" opacity="0.45"/><circle cx="200" cy="160" r="5" fill="none" stroke="#8fc2f0" stroke-width="2" opacity="0.5"/><circle cx="200" cy="160" r="1.8" fill="#8fc2f0" opacity="0.45"/><rect x="473" y="36" width="14" height="8" rx="1.5" fill="#8fc2f0" opacity="0.28"/><rect x="113" y="276" width="14" height="8" rx="1.5" fill="#8fc2f0" opacity="0.28"/><rect x="513" y="196" width="14" height="8" rx="1.5" fill="#8fc2f0" opacity="0.28"/><rect x="353" y="476" width="14" height="8" rx="1.5" fill="#8fc2f0" opacity="0.28"/><rect x="473" y="636" width="14" height="8" rx="1.5" fill="#8fc2f0" opacity="0.28"/><rect x="153" y="156" width="14" height="8" rx="1.5" fill="#8fc2f0" opacity="0.28"/><rect x="633" y="596" width="14" height="8" rx="1.5" fill="#8fc2f0" opacity="0.28"/><rect x="633" y="636" width="14" height="8" rx="1.5" fill="#8fc2f0" opacity="0.28"/><rect x="393" y="116" width="14" height="8" rx="1.5" fill="#8fc2f0" opacity="0.28"/><rect x="193" y="156" width="14" height="8" rx="1.5" fill="#8fc2f0" opacity="0.28"/><text x="403" y="380" font-family="ui-monospace,SFMono-Regular,Menlo,Consolas,monospace" font-size="13" fill="#8fc2f0" opacity="0.27">assert(anchor_count &gt;= 3);</text><text x="102" y="558" font-family="ui-monospace,SFMono-Regular,Menlo,Consolas,monospace" font-size="11" fill="#8fc2f0" opacity="0.26">osThreadFlagsWait(EVT_RX, osFlagsWaitAny, 0);</text><text x="205" y="180" font-family="ui-monospace,SFMono-Regular,Menlo,Consolas,monospace" font-size="13" fill="#8fc2f0" opacity="0.32">while (!(UART-&gt;SR &amp; TXE));</text><text x="408" y="570" font-family="ui-monospace,SFMono-Regular,Menlo,Consolas,monospace" font-size="12" fill="#8fc2f0" opacity="0.40">static inline uint32_t crc32(const uint8_t *p)</text><text x="376" y="297" font-family="ui-monospace,SFMono-Regular,Menlo,Consolas,monospace" font-size="13" fill="#8fc2f0" opacity="0.29">if (frame.pgn == 0x1F513) {</text><text x="202" y="258" font-family="ui-monospace,SFMono-Regular,Menlo,Consolas,monospace" font-size="13" fill="#8fc2f0" opacity="0.32">osThreadFlagsWait(EVT_RX, osFlagsWaitAny, 0);</text><text x="188" y="681" font-family="ui-monospace,SFMono-Regular,Menlo,Consolas,monospace" font-size="11" fill="#8fc2f0" opacity="0.33">HAL_GPIO_TogglePin(GPIOB, LED_Pin);</text><text x="142" y="440" font-family="ui-monospace,SFMono-Regular,Menlo,Consolas,monospace" font-size="13" fill="#8fc2f0" opacity="0.36">HAL_GPIO_TogglePin(GPIOB, LED_Pin);</text><text x="285" y="534" font-family="ui-monospace,SFMono-Regular,Menlo,Consolas,monospace" font-size="12" fill="#8fc2f0" opacity="0.35">while (!(UART-&gt;SR &amp; TXE));</text><text x="163" y="513" font-family="ui-monospace,SFMono-Regular,Menlo,Consolas,monospace" font-size="12" fill="#8fc2f0" opacity="0.25">spi_xfer(&amp;tx[0], &amp;rx[0], n);</text><text x="196" y="487" font-family="ui-monospace,SFMono-Regular,Menlo,Consolas,monospace" font-size="13" fill="#8fc2f0" opacity="0.40">cir_t *cir = dw3000_read_cir(dev);</text><text x="61" y="255" font-family="ui-monospace,SFMono-Regular,Menlo,Consolas,monospace" font-size="11" fill="#8fc2f0" opacity="0.26">HAL_GPIO_TogglePin(GPIOB, LED_Pin);</text><text x="192" y="239" font-family="ui-monospace,SFMono-Regular,Menlo,Consolas,monospace" font-size="12" fill="#8fc2f0" opacity="0.33">spi_xfer(&amp;tx[0], &amp;rx[0], n);</text><text x="20" y="520" font-family="ui-monospace,SFMono-Regular,Menlo,Consolas,monospace" font-size="13" fill="#8fc2f0" opacity="0.28">CAN_FilterTypeDef f = { .FilterBank = 0 };</text><text x="63" y="152" font-family="ui-monospace,SFMono-Regular,Menlo,Consolas,monospace" font-size="12" fill="#8fc2f0" opacity="0.36">HAL_GPIO_TogglePin(GPIOB, LED_Pin);</text><text x="264" y="212" font-family="ui-monospace,SFMono-Regular,Menlo,Consolas,monospace" font-size="12" fill="#8fc2f0" opacity="0.36">cir_t *cir = dw3000_read_cir(dev);</text></svg>